<?xml version="1.0" standalone="no"?>
<!DOCTYPE svg PUBLIC "-//W3C//DTD SVG 20010904//EN"
 "http://www.w3.org/TR/2001/REC-SVG-20010904/DTD/svg10.dtd">
<svg version="1.0" xmlns="http://www.w3.org/2000/svg"
 width="320.000000pt" height="320.000000pt" viewBox="0 0 320.000000 320.000000"
 preserveAspectRatio="xMidYMid meet">
<metadata>
Created by potrace 1.16, written by Peter Selinger 2001-2019
</metadata>
<g transform="translate(0.000000,320.000000) scale(0.100000,-0.100000)"
fill="#000000" stroke="none">
<path d="M0 1600 l0 -1600 301 0 301 0 -7 38 c-4 20 -14 53 -23 72 -34 74 -33
73 -16 66 11 -4 14 -1 10 12 -2 9 -10 43 -16 76 -7 32 -18 72 -26 90 l-15 31
6 -35 c4 -19 8 -39 8 -45 1 -5 -2 -11 -8 -13 -5 -2 -16 21 -23 50 -15 60 -27
78 -51 78 -14 0 -17 -9 -17 -42 1 -41 -1 -43 -30 -46 -48 -5 -84 13 -84 43 0
14 4 25 10 25 5 0 7 7 4 15 -6 14 -61 30 -96 27 -10 0 -20 3 -23 9 -4 5 -1 9
4 9 6 0 11 5 11 11 0 6 -8 8 -17 5 -16 -5 -18 2 -15 79 2 47 8 85 13 85 5 0 9
24 9 54 0 34 5 58 14 65 11 9 15 9 19 -1 8 -18 27 10 27 39 0 12 11 30 25 41
14 11 25 30 25 42 0 12 10 30 22 40 19 15 20 20 9 34 -7 8 -11 21 -8 28 4 8 6
7 6 -4 1 -10 7 -18 15 -18 11 0 14 9 10 37 -5 44 -2 39 21 -40 9 -31 14 -64
11 -73 -4 -10 -2 -13 6 -8 8 5 9 0 5 -15 -3 -13 -3 -20 0 -17 4 3 18 -22 33
-57 49 -116 123 -239 186 -310 35 -39 59 -74 55 -77 -5 -3 -5 -25 -2 -50 4
-25 3 -63 -2 -85 -4 -22 -7 -58 -6 -80 2 -56 0 -67 -11 -60 -5 3 -10 44 -10
91 0 77 -2 84 -20 84 -14 0 -20 -7 -20 -22 0 -21 -2 -21 -18 7 -15 24 -16 31
-5 33 17 4 13 76 -5 94 -9 9 -12 9 -12 -3 0 -12 -2 -12 -9 0 -5 7 -14 10 -20
7 -6 -4 -9 -12 -6 -17 3 -5 -1 -6 -9 -3 -12 5 -12 -1 3 -33 10 -21 22 -56 25
-78 9 -49 33 -86 45 -67 14 23 28 -8 33 -73 3 -33 3 -52 1 -42 -5 19 -33 24
-33 5 0 -7 6 -35 14 -63 13 -48 14 -49 24 -25 10 24 11 24 11 3 1 -22 5 -23
70 -23 l68 0 6 32 c7 43 28 96 33 83 2 -6 -2 -34 -9 -63 l-14 -52 1193 0 1194
0 0 1600 0 1600 -1600 0 -1600 0 0 -1600z m1241 940 c28 0 68 -40 80 -81 8
-24 18 -39 28 -39 9 0 22 -9 28 -19 7 -11 22 -21 34 -23 15 -2 27 -17 41 -52
17 -45 17 -50 3 -66 -13 -14 -13 -19 -3 -23 7 -4 -7 -5 -32 -5 -111 4 -135
-20 -124 -127 6 -58 5 -64 -15 -75 -19 -10 -22 -19 -20 -62 2 -38 -1 -52 -13
-59 -25 -14 -31 6 -16 47 10 29 10 37 -1 43 -10 7 -8 10 8 16 34 11 19 30 -27
33 -47 3 -49 7 -27 48 14 27 20 54 12 54 -2 0 -17 -6 -33 -14 -79 -38 -87 -31
-57 46 21 53 27 58 81 58 28 0 42 4 42 13 0 19 30 43 63 51 15 4 31 14 34 22
10 28 -15 38 -84 36 -56 -1 -71 -6 -93 -27 -14 -14 -28 -25 -31 -25 -9 0 -9
140 1 166 19 49 74 92 95 73 5 -5 16 -9 26 -9z m416 -106 c-3 -3 -12 -4 -19
-1 -8 3 -5 6 6 6 11 1 17 -2 13 -5z m13 -86 c0 -10 -4 -18 -10 -18 -5 0 -10 5
-10 10 0 6 -6 10 -14 10 -24 0 -29 20 -10 35 16 12 21 12 32 -2 6 -9 12 -25
12 -35z m-80 -37 c0 -9 -41 -23 -48 -16 -2 2 -1 13 3 24 5 17 10 19 26 11 10
-6 19 -15 19 -19z m70 -12 c-7 -11 -14 -18 -17 -15 -8 8 5 36 17 36 7 0 7 -6
0 -21z m-165 -49 c-3 -5 -11 -10 -16 -10 -6 0 -7 5 -4 10 3 6 11 10 16 10 6 0
7 -4 4 -10z m165 0 c0 -5 -13 -16 -29 -24 -26 -14 -30 -14 -41 -1 -10 13 -8
15 11 15 13 0 31 5 39 10 19 12 20 12 20 0z m-1133 -142 c-3 -8 -6 -5 -6 6 -1
11 2 17 5 13 3 -3 4 -12 1 -19z m10 -50 c-3 -7 -5 -2 -5 12 0 14 2 19 5 13 2
-7 2 -19 0 -25z m10 -50 c-3 -7 -5 -2 -5 12 0 14 2 19 5 13 2 -7 2 -19 0 -25z
m29 -141 c-2 -7 -5 -2 -5 11 -1 13 -5 21 -10 17 -5 -3 -13 0 -17 6 -4 8 -3 9
4 5 8 -5 12 1 13 16 1 18 3 16 10 -10 6 -19 8 -39 5 -45z m1147 16 c-20 -27
-49 -75 -64 -108 -15 -33 -45 -80 -68 -104 -33 -36 -38 -46 -29 -61 9 -14 0
-43 -43 -144 -29 -70 -55 -122 -57 -116 -2 6 1 25 7 42 6 17 11 56 11 87 0 43
7 67 29 104 l28 49 -23 56 c-13 31 -24 62 -24 69 0 7 30 30 68 52 37 22 94 58
127 80 33 22 63 41 67 41 5 0 -9 -21 -29 -47z m-1136 -65 c-3 -8 -6 -5 -6 6
-1 11 2 17 5 13 3 -3 4 -12 1 -19z m10 -50 c-3 -7 -5 -2 -5 12 0 14 2 19 5 13
2 -7 2 -19 0 -25z m18 -88 c-3 -5 -11 -10 -16 -10 -6 0 -7 5 -4 10 3 6 11 10
16 10 6 0 7 -4 4 -10z m849 -31 c-18 -20 -40 -27 -29 -9 3 6 0 10 -7 11 -7 0
-1 5 15 11 15 5 27 15 28 21 0 8 2 7 6 -1 3 -7 -3 -22 -13 -33z m-1016 -14 c4
-47 -13 -69 -27 -34 -11 30 -3 81 13 76 6 -2 12 -21 14 -42z m883 2 c-10 -9
-11 -8 -5 6 3 10 9 15 12 12 3 -3 0 -11 -7 -18z m-921 -64 c0 -22 -5 -33 -15
-33 -8 0 -19 -9 -25 -20 -13 -24 -30 -17 -30 12 0 11 8 22 20 25 14 4 20 14
20 32 0 15 3 31 7 34 11 11 23 -15 23 -50z m650 -33 c0 -5 -4 -10 -10 -10 -5
0 -10 5 -10 10 0 6 5 10 10 10 6 0 10 -4 10 -10z m340 0 c0 -5 -5 -10 -10 -10
-11 0 -32 -42 -36 -75 -2 -11 -12 -42 -23 -70 -15 -37 -20 -44 -20 -25 -1 49
26 135 50 162 25 29 39 35 39 18z m10 -20 c-6 -12 -14 -20 -17 -17 -2 3 1 14
8 26 7 11 15 18 17 16 2 -2 -2 -13 -8 -25z m-835 -94 c-26 -38 -40 -51 -65
-63 -43 -19 -59 -23 -66 -12 -8 13 36 77 59 85 9 3 17 12 17 20 0 8 11 20 25
26 14 6 25 18 26 27 1 9 5 -2 10 -23 7 -30 6 -44 -6 -60z m435 80 c0 -2 -7 -7
-16 -10 -8 -3 -12 -2 -9 4 6 10 25 14 25 6z m387 -38 c-3 -8 -6 -5 -6 6 -1 11
2 17 5 13 3 -3 4 -12 1 -19z m22 -42 c-9 -8 -10 -7 -5 7 3 10 7 28 7 40 2 16
3 14 6 -7 3 -16 -1 -34 -8 -40z m-2 -48 c-3 -8 -6 -5 -6 6 -1 11 2 17 5 13 3
-3 4 -12 1 -19z m-552 -102 c1 -47 -2 -83 -7 -80 -4 3 -9 -3 -9 -13 -1 -17 -2
-17 -6 0 -8 29 -23 19 -23 -15 0 -41 -6 -34 -13 17 -4 23 -3 34 2 26 11 -18
23 2 15 24 -5 13 -9 14 -15 3 -7 -10 -11 -7 -15 10 -4 12 -10 22 -15 22 -12 0
-11 -17 1 -25 6 -3 10 -16 9 -28 -1 -19 -2 -18 -14 8 -19 42 -18 55 5 55 11 0
20 6 21 13 1 6 4 1 8 -13 7 -22 9 -18 17 25 l8 50 8 -40 c6 -36 6 -34 4 13 -2
37 0 50 7 43 6 -6 12 -49 12 -95z m-107 41 c16 -19 13 -30 -5 -19 -6 4 -14 21
-17 37 -3 17 -3 23 0 15 4 -8 13 -23 22 -33z m39 1 c-3 -8 -6 -5 -6 6 -1 11 2
17 5 13 3 -3 4 -12 1 -19z m-357 3 c0 -6 -4 -13 -10 -16 -5 -3 -10 1 -10 9 0
9 5 16 10 16 6 0 10 -4 10 -9z m30 -931 c0 -5 -4 -10 -10 -10 -5 0 -10 5 -10
10 0 6 5 10 10 10 6 0 10 -4 10 -10z m285 -40 c3 -5 1 -10 -4 -10 -6 0 -11 5
-11 10 0 6 2 10 4 10 3 0 8 -4 11 -10z m105 -14 c0 -11 -19 -15 -25 -6 -3 5 1
10 9 10 9 0 16 -2 16 -4z m-372 -37 c-3 -8 -7 -3 -11 10 -4 17 -3 21 5 13 5
-5 8 -16 6 -23z m262 -31 c-9 -49 -4 -69 16 -61 16 6 18 -15 4 -37 -8 -12 -10
-12 -10 5 l-1 20 -15 -20 c-14 -18 -15 -15 -10 50 3 39 5 76 6 83 0 7 4 11 9
8 4 -3 5 -24 1 -48z m-236 -74 c11 -28 7 -44 -9 -38 -8 4 -15 17 -15 30 0 27
15 32 24 8z m283 -26 c-3 -7 -5 -2 -5 12 0 14 2 19 5 13 2 -7 2 -19 0 -25z"/>
<path d="M842 1220 c0 -14 2 -19 5 -12 2 6 2 18 0 25 -3 6 -5 1 -5 -13z"/>
<path d="M341 864 c0 -11 3 -14 6 -6 3 7 2 16 -1 19 -3 4 -6 -2 -5 -13z"/>
<path d="M642 370 c-1 -27 3 -52 8 -55 6 -4 10 11 10 37 0 62 -15 77 -18 18z"/>
</g>
</svg>
